<svg width="220" height="194" viewBox="0 0 220 194" fill="none" xmlns="http://www.w3.org/2000/svg">
<g clip-path="url(#clip0_2_220)">
<g style="mix-blend-mode:multiply">
<path d="M174.195 138.146L126.485 194L0 167.138L35.4353 152.228L120.744 182.81L174.195 138.146Z" fill="#EDECEB"/>
</g>
<path d="M174.195 138.146L164.723 71.6543L84.5837 67.3696L101.61 183.123L121.586 187.714L174.195 138.146Z" fill="#022333"/>
<path d="M24.8631 103.783L38.9327 168.722L101.61 183.123L84.5837 67.3696L24.8631 103.783Z" fill="#063046"/>
<path d="M164.723 71.6543L110.854 112.948L121.586 187.714L174.195 138.146L164.723 71.6543Z" fill="#2A96A8"/>
<path d="M24.8631 103.783L38.9327 168.722L121.586 187.714L110.854 112.948L24.8631 103.783Z" fill="#226F77"/>
<path d="M116.497 152.228L116.989 155.653L169.014 101.745L168.522 98.3136L116.497 152.228Z" fill="#2A909B"/>
<path d="M117.585 159.821L118.077 163.246L170.096 109.344L169.604 105.913L117.585 159.821Z" fill="#2A909B"/>
<path d="M170.686 113.512L118.673 167.408L119.165 170.833L171.177 116.944L170.686 113.512Z" fill="#2A909B"/>
<path d="M174.195 138.146L173.937 136.317L151.815 159.238L174.195 138.146Z" fill="#2A909B"/>
<path d="M115.403 144.634L115.895 148.06L167.926 94.1456L167.44 90.7142L115.403 144.634Z" fill="#2A909B"/>
<path d="M112.133 121.855L112.625 125.28L163.402 72.6732L148.81 83.8575L112.133 121.855Z" fill="#2A909B"/>
<path d="M172.259 124.543L171.767 121.112L119.761 175.002L120.253 178.427L172.259 124.543Z" fill="#2A909B"/>
<path d="M173.341 132.143L172.855 128.717L120.855 182.595L121.347 186.02L173.341 132.143Z" fill="#2A909B"/>
<path d="M111.045 114.268L111.537 117.687L131.052 97.4666L116.46 108.651L111.045 114.268Z" fill="#2A909B"/>
<path d="M113.227 129.448L113.719 132.873L165.762 78.9406L165.277 75.5154L113.227 129.448Z" fill="#2A909B"/>
<path d="M114.315 137.041L114.807 140.466L166.844 86.5462L166.358 83.1147L114.315 137.041Z" fill="#2A909B"/>
<path d="M114.973 141.621L59.0137 107.423L52.6704 106.748L115.477 145.132L114.973 141.621Z" fill="#1F6568"/>
<path d="M116.091 149.398L44.9502 105.925L38.6069 105.25L116.595 152.909L116.091 149.398Z" fill="#1F6568"/>
<path d="M117.204 157.175L30.8868 104.421L24.8631 103.783L24.9 103.967L117.708 160.687L117.204 157.175Z" fill="#1F6568"/>
<path d="M118.323 164.953L25.8773 108.454L26.6764 112.144L118.827 168.464L118.323 164.953Z" fill="#1F6568"/>
<path d="M112.741 126.066L87.1407 110.419L80.7974 109.743L113.245 129.571L112.741 126.066Z" fill="#1F6568"/>
<path d="M94.8608 111.241L112.127 121.793L111.623 118.288L101.204 111.923L94.8608 111.241Z" fill="#1F6568"/>
<path d="M113.854 133.843L73.0772 108.921L66.7339 108.246L114.358 137.348L113.854 133.843Z" fill="#1F6568"/>
<path d="M64.3982 174.572L36.5048 157.531L37.3039 161.214L56.0081 172.644L64.3982 174.572Z" fill="#1F6568"/>
<path d="M83.004 178.85L34.7346 149.349L35.5336 153.038L74.6139 176.923L83.004 178.85Z" fill="#1F6568"/>
<path d="M38.9327 168.722L45.7923 170.299L38.275 165.708L38.9327 168.722Z" fill="#1F6568"/>
<path d="M119.435 172.73L27.6475 116.637L28.4466 120.326L119.939 176.241L119.435 172.73Z" fill="#1F6568"/>
<path d="M120.554 180.508L29.4177 124.813L30.2168 128.503L121.058 184.019L120.554 180.508Z" fill="#1F6568"/>
<path d="M101.61 183.123L32.9644 141.172L33.7634 144.862L93.2197 181.195L101.61 183.123Z" fill="#1F6568"/>
<path d="M120.216 187.401L31.188 132.99L31.9932 136.679L111.826 185.474L120.216 187.401Z" fill="#1F6568"/>
<path d="M57.5693 107.331L72.733 176.407L85.1738 179.12L72.0015 108.657L57.5693 107.331Z" fill="#FDB62C"/>
<g style="mix-blend-mode:multiply">
<path d="M57.5693 107.331L72.733 176.407L69.6351 175.904L57.5693 107.331Z" fill="#49DBD7"/>
</g>
<path d="M136.719 92.7645L147.587 163.547L155.387 155.389L145.749 86.1411L136.719 92.7645Z" fill="#FDB62C"/>
<g style="mix-blend-mode:multiply">
<path d="M136.719 92.7644L147.587 163.547L145.177 165.806L136.719 92.7644Z" fill="#49DBD7"/>
</g>
<path d="M198.413 128.091L106.115 77.8603L100.842 50.2802L95.537 22.4914L111.106 1.04358L192.119 50.8511L218.119 105.25L198.413 128.091Z" fill="#2A96A8"/>
<path d="M198.413 128.091L106.115 77.8602L128.126 54.5525L218.119 105.25L198.413 128.091Z" fill="#226F77"/>
<path d="M128.126 54.5526L111.106 1.04358L192.119 50.8511L218.119 105.25L128.126 54.5526Z" fill="#33B6C4"/>
<g style="mix-blend-mode:multiply">
<path d="M100.842 50.2802L120.197 29.1393L205.894 79.7693L120.124 30.9808L100.842 50.2802Z" fill="#49DBD7"/>
</g>
<path d="M120.197 29.1393L100.842 50.2802L98.8254 40.1824L116.86 19.0354L200.165 67.2223L205.893 79.7694L120.197 29.1393Z" fill="#FDB62C"/>
<g style="mix-blend-mode:multiply">
<path d="M152.399 26.3463L169.198 77.4613L148.877 101.15L167.563 76.4485L152.399 26.3463Z" fill="#49DBD7"/>
</g>
<path d="M148.877 101.15L169.198 77.4613L152.399 26.3463L165.498 34.4L182.125 84.9257L161.183 108L148.877 101.15Z" fill="#FDB62C"/>
<path d="M181.897 88.6456C181.897 88.6456 172.585 87.1232 169.825 90.7695C168.94 94.2315 167.336 105.44 188.154 116.422C208.973 127.404 218.328 110.431 218.396 104.82C215.648 108.301 208.764 112.8 205.684 112.598C211.893 107.65 208.635 101.266 208.635 101.266C208.635 101.266 201.64 118.804 190.422 113.893C179.205 108.982 176.439 92.433 181.897 88.6456Z" fill="#EFA92B"/>
<g style="mix-blend-mode:multiply">
<path d="M166.832 58.5118C166.832 58.5118 183.784 70.8624 183.968 77.9585C184.153 85.0546 170.876 84.3916 169.278 90.8002C168.295 94.741 169.401 98.6083 170.741 100.517C168.897 96.4046 169.327 92.2181 169.776 90.9475C172.634 89.2164 174.644 88.3264 181.829 88.7376C182.088 88.6149 191.049 79.8184 191.154 79.1187C191.258 78.4189 189.5 73.7168 189.5 73.7168L180.539 63.9382L173.777 61.5258L166.832 58.5118Z" fill="#CCCCCC"/>
</g>
<path d="M185.21 76.2888C186.771 84.6923 172.019 83.7654 169.733 90.9904C175.08 84.7353 192.23 94.2683 196.667 81.6108C203.392 62.4527 173.544 61.845 169.856 56.7623C169.536 58.0698 169.241 57.9041 167.434 58.5425C171.565 62.2256 184.264 71.2061 185.21 76.2888Z" fill="#FDB62C"/>
<g style="mix-blend-mode:multiply">
<path d="M167.864 58.0085C180.569 63.3981 196.188 57.898 204.744 49.2673C188.007 52.7294 167.864 58.0085 167.864 58.0085Z" fill="#CCCCCC"/>
</g>
<path d="M167.637 57.7015C167.637 57.7015 193.717 69.8188 219.926 33.0985L208.248 15.3829C208.248 15.3829 196.692 48.0703 167.637 57.7015Z" fill="#F98524"/>
<g style="mix-blend-mode:multiply">
<path d="M167.864 58.0084C167.864 58.0084 181.879 35.91 220 33.3564C207.276 31.4841 181.614 28.6298 167.864 58.0084Z" fill="#CCCCCC"/>
</g>
<path d="M167.864 58.0085C167.864 58.0085 165.867 30.7783 208.315 15.4137C212.855 20.949 216.771 26.9661 219.994 33.3564C219.994 33.3564 184.952 32.6321 167.864 58.0085Z" fill="#FDB62C"/>
<path d="M158.177 106.613C158.177 106.613 159.228 101.469 153.875 97.092C145.638 90.3397 126.713 87.2091 121.82 110.996C117.437 132.339 145.417 137.256 145.417 137.256C144.647 133.415 142.412 130.023 139.184 127.797C147.23 125.415 149.676 120.523 149.676 120.523C149.676 120.523 140.112 121.044 134.605 118.067C129.823 115.458 130.978 107.589 136.51 106.441C146.775 104.323 144.808 115.115 144.808 115.115L158.177 106.613Z" fill="#F98524"/>
<g style="mix-blend-mode:multiply">
<path d="M169.788 55.86C169.788 55.86 149 57.9655 136.277 74.2754C125.975 87.4853 134.039 113.206 144.821 115.084C138.944 108.945 132.589 93.0775 136.025 83.9312C139.461 74.7849 145.675 65.3992 153.192 62.7351C160.71 60.071 169.788 55.86 169.788 55.86Z" fill="#CCCCCC"/>
</g>
<path d="M169.174 58.4689C169.174 58.4689 146.099 65.9455 144.12 80.3648C142.141 94.784 153.34 104.704 158.085 106.809C154.557 114.458 144.821 115.096 144.821 115.096C144.821 115.096 130.308 107.313 133.499 84.8581C136.689 62.4036 169.764 55.8723 169.764 55.8723L169.174 58.4689Z" fill="#FDB62C"/>
<g style="mix-blend-mode:multiply">
<path d="M168.184 58.4688C168.184 58.4688 175.369 49.5864 173.796 38.7766C173.415 46.9162 169.911 56.2528 168.184 58.4688Z" fill="#CCCCCC"/>
</g>
<g style="mix-blend-mode:multiply">
<path d="M155.098 27.1074C155.098 27.1074 164.508 41.011 167.803 56.0012C170.999 49.7768 161.46 28.3106 155.098 27.1074Z" fill="#CCCCCC"/>
</g>
<path d="M168.172 58.4873C168.172 58.4873 186.98 34.7376 155.608 0L134.55 7.94317C134.55 7.94317 165.344 26.8926 168.172 58.4873Z" fill="#F98524"/>
<g style="mix-blend-mode:multiply">
<path d="M134.611 7.85718C134.611 7.85718 132.152 43.6813 165.16 57.2718C151.109 30.2626 154.637 13.3879 155.872 0.116577C149.885 0.877747 134.611 7.85718 134.611 7.85718Z" fill="#CCCCCC"/>
</g>
<path d="M168.184 58.4689C168.184 58.4689 140.063 54.307 134.611 7.85723C141.4 4.48535 148.532 1.85118 155.885 0C155.885 0 146.29 35.511 168.184 58.4689Z" fill="#FDB62C"/>
<g style="mix-blend-mode:multiply">
<path d="M169.032 55.6819C172.831 55.7372 172.462 59.6842 167.803 59.1747C163.144 58.6652 164.367 55.6206 169.032 55.6819Z" fill="#CCCCCC"/>
</g>
<path d="M168.897 55.6819C171.97 55.7372 171.7 59.6842 167.883 59.1747C164.066 58.6652 165.086 55.6206 168.897 55.6819Z" fill="#FDB62C"/>
</g>
<defs>
<clipPath id="clip0_2_220">
<rect width="220" height="194" fill="white"/>
</clipPath>
</defs>
</svg>
