<svg width="40" height="40" viewBox="0 0 40 40" fill="none" xmlns="http://www.w3.org/2000/svg">
<path d="M20 5C11.7152 5 5 11.7172 5 20.0008C5 28.2848 11.7152 35 20 35C28.2848 35 35 28.2848 35 20.0008C35 11.7172 28.2848 5 20 5ZM9.1588 21.9876H11.4596C11.8446 24.8862 13.0721 27.608 14.99 29.8152C11.9896 28.2776 9.784 25.4064 9.1588 21.9876ZM11.4596 18.012H9.1588C9.7844 14.5936 11.99 11.7224 14.9904 10.1848C13.0725 12.3919 11.8448 15.1135 11.4596 18.012ZM18.012 27.2236C16.7155 25.7367 15.8433 23.9283 15.4868 21.988H18.012V27.2236ZM18.012 18.012H15.4868C15.8434 16.0719 16.7157 14.2636 18.012 12.7768V18.012ZM30.8408 18.012H28.5404C28.1554 15.1137 26.928 12.3923 25.0104 10.1852C28.01 11.7232 30.2156 14.5944 30.8408 18.012ZM21.988 27.2228V21.9876H24.5132C24.1563 23.9276 23.2841 25.7358 21.988 27.2228ZM21.988 18.012V12.7764C23.2845 14.2633 24.1567 16.0717 24.5132 18.012H21.988ZM25.0092 29.8156C26.9274 27.6083 28.1552 24.8864 28.5404 21.9876H30.8412C30.216 25.4068 28.01 28.278 25.0092 29.8156Z" fill="white"/>
</svg>
