<svg width="472" height="315" viewBox="0 0 472 315" fill="none" xmlns="http://www.w3.org/2000/svg">
<g clip-path="url(#clip0_2_24)">
<path d="M282.111 156.1L293.443 140.071L297.869 146.425L282.111 156.1Z" fill="white"/>
<path d="M334.121 43.0518L345.462 27.0223L349.879 33.376L334.121 43.0518Z" fill="white"/>
<path d="M131.138 276.888L111.496 278.253L113.956 285.895L131.138 276.888Z" fill="white"/>
<path d="M414.315 241.081L433.085 235.424V244.044L414.315 241.081Z" fill="#063046"/>
<path d="M209.433 159.742L197.53 148.827L202.053 146.521L209.433 159.742Z" fill="#063046"/>
<path d="M441.588 98.7237L429.685 87.8082L434.208 85.4934L441.588 98.7237Z" fill="#063046"/>
<path d="M72.9201 171.471L60.5811 160.807L59.4867 167.045L72.9201 171.471Z" fill="#2B9EBA"/>
<path d="M366.712 180.585L372.726 173.767L373.927 177.776L366.712 180.585Z" fill="#063046"/>
<path d="M143.661 264.955L135.845 261.953L138.247 255.938L143.661 264.955Z" fill="white"/>
<path d="M166.208 153.728L172.223 150.125L167.109 165.757L166.208 153.728Z" fill="white"/>
<path d="M58.402 52.6017L61.695 58.7907L46.3439 52.8826L58.402 52.6017Z" fill="white"/>
<path d="M122.015 167.558L129.23 162.144L133.743 172.972L122.015 167.558Z" fill="#FDB62C"/>
<path d="M307.157 43.0421L314.373 37.6279L318.877 48.4466L307.157 43.0421Z" fill="#FDB62C"/>
<path d="M345.811 149.02L361.143 132.787L366.557 139.102L345.811 149.02Z" fill="#FDB62C"/>
<path d="M179.002 284.249C178.105 284.321 177.203 284.166 176.38 283.799C175.558 283.432 174.841 282.864 174.295 282.147C173.734 281.246 173.133 279.328 175.38 276.568C176.184 275.542 177.192 274.693 178.341 274.076C179.489 273.459 180.754 273.088 182.053 272.984C184.346 272.849 186.641 273.22 188.775 274.069C189.187 272.812 189.46 271.512 189.588 270.195C189.985 266.466 188.552 263.909 185.346 262.592C184.158 262.125 182.909 261.835 181.637 261.73C179.816 266.931 174.857 272.006 170.576 273.478C167.545 274.505 164.968 273.788 163.312 271.454C162.692 270.616 162.386 269.588 162.446 268.547C162.506 267.506 162.929 266.52 163.642 265.759C166.373 262.321 173.753 259.638 180.203 259.725C180.376 258.992 180.45 258.24 180.426 257.488C180.32 254.834 178.692 253.091 175.583 252.296C162.412 248.935 156.755 258.359 156.523 258.757C156.389 258.967 156.179 259.118 155.936 259.178C155.693 259.237 155.437 259.2 155.221 259.075C155.005 258.95 154.845 258.747 154.775 258.507C154.706 258.267 154.732 258.009 154.847 257.788C154.906 257.672 161.433 246.688 176.068 250.417C179.99 251.386 182.228 253.904 182.363 257.41C182.391 258.226 182.322 259.042 182.16 259.841C183.488 259.994 184.79 260.319 186.034 260.81C190.014 262.437 191.952 265.846 191.467 270.408C191.308 271.918 190.983 273.405 190.499 274.844C193.304 276.159 195.934 277.822 198.324 279.793C198.52 279.96 198.641 280.198 198.66 280.454C198.68 280.71 198.598 280.964 198.431 281.159C198.264 281.354 198.026 281.475 197.77 281.495C197.514 281.515 197.261 281.432 197.065 281.266C194.851 279.429 192.421 277.868 189.83 276.617C189.035 278.429 187.837 280.036 186.326 281.315C184.816 282.594 183.033 283.512 181.114 283.997C180.421 284.154 179.713 284.239 179.002 284.249ZM183.051 274.873C182.76 274.873 182.47 274.873 182.189 274.873C181.144 274.955 180.127 275.256 179.206 275.757C178.285 276.257 177.48 276.946 176.843 277.779C176.203 278.554 175.235 280.026 175.874 281.101C176.513 282.176 178.557 282.573 180.717 282.069C182.325 281.647 183.817 280.866 185.082 279.786C186.346 278.706 187.35 277.355 188.019 275.832C186.432 275.224 184.75 274.9 183.051 274.873ZM179.554 261.614C173.83 261.614 167.438 264.016 165.123 266.931C164.675 267.365 164.4 267.948 164.35 268.57C164.3 269.192 164.479 269.811 164.852 270.311C166.005 271.929 167.7 272.365 169.908 271.619C173.54 270.389 177.811 266.001 179.593 261.614H179.554Z" fill="#FDB62C"/>
<path d="M387.206 169.699C386.975 169.699 386.752 169.616 386.576 169.466C386.489 169.398 378.654 162.522 383.835 151.364C385.24 148.323 387.603 146.889 390.489 147.306C391.089 147.396 391.677 147.552 392.242 147.771C392.548 146.778 392.985 145.83 393.54 144.952C395.477 141.96 398.528 140.914 402.15 141.989C403.279 142.322 404.37 142.773 405.404 143.335C406.845 141.346 408.527 139.544 410.412 137.969C410.613 137.836 410.856 137.783 411.095 137.82C411.333 137.856 411.549 137.981 411.7 138.169C411.852 138.356 411.928 138.594 411.913 138.835C411.899 139.075 411.795 139.302 411.622 139.47C409.905 140.918 408.364 142.563 407.032 144.371C408.33 145.28 409.406 146.469 410.183 147.851C410.959 149.232 411.415 150.771 411.516 152.352C411.622 154.909 410.547 157.059 408.92 157.708C408.077 158.037 406.373 158.241 404.455 155.974C403.744 155.167 403.209 154.221 402.884 153.195C402.559 152.169 402.451 151.087 402.567 150.018C402.79 148.222 403.394 146.495 404.339 144.952C403.457 144.493 402.532 144.12 401.579 143.839C398.78 143.006 396.62 143.732 395.157 145.998C394.65 146.815 394.258 147.698 393.995 148.623C397.869 150.899 401.085 155.529 401.608 159.161C401.985 161.795 400.998 163.8 398.828 164.808C398.044 165.185 397.154 165.279 396.308 165.074C395.462 164.869 394.713 164.378 394.189 163.684C391.864 161.021 390.789 154.832 391.787 149.689C391.29 149.481 390.77 149.335 390.237 149.253C388.232 148.962 386.663 149.95 385.617 152.207C381.056 162.047 387.787 167.965 387.864 168.023C388.015 168.152 388.122 168.324 388.172 168.515C388.222 168.707 388.212 168.909 388.143 169.095C388.075 169.28 387.951 169.441 387.789 169.554C387.626 169.667 387.433 169.728 387.235 169.728L387.206 169.699ZM393.559 150.638C392.881 155.045 393.753 160.236 395.622 162.386C395.864 162.78 396.246 163.069 396.692 163.192C397.138 163.316 397.613 163.267 398.024 163.054C399.409 162.415 399.961 161.234 399.7 159.451C399.283 156.546 396.62 152.71 393.559 150.638ZM405.985 146.008C405.196 147.29 404.691 148.727 404.504 150.221C404.414 151.033 404.496 151.854 404.744 152.632C404.993 153.409 405.403 154.126 405.947 154.735C406.78 155.703 407.613 156.149 408.223 155.907C408.833 155.664 409.666 154.338 409.588 152.439C409.502 151.167 409.134 149.93 408.511 148.818C407.888 147.706 407.025 146.746 405.985 146.008Z" fill="#063046"/>
<path d="M219.893 36.7465L210.034 23.3031L221.685 20.6202L219.893 36.7465Z" fill="#FDB62C"/>
<path d="M169.559 49.4538L153.327 45.8412L158.131 38.6255L169.559 49.4538Z" fill="white"/>
<path d="M458.392 116.216L466.431 101.668L472 108.312L458.392 116.216Z" fill="white"/>
<path d="M256.387 26.819L259.99 8.1842L265.404 10.5862L256.387 26.819Z" fill="white"/>
<path d="M232.446 169.563C232.184 169.56 231.923 169.525 231.671 169.457C228.998 168.769 226.412 164.614 225.811 160.401C223.438 160.982 221.656 163.122 220.62 166.628C220.595 166.761 220.542 166.887 220.465 166.999C220.388 167.11 220.289 167.204 220.174 167.274C220.059 167.345 219.93 167.391 219.796 167.408C219.662 167.426 219.525 167.416 219.396 167.378C219.266 167.34 219.146 167.275 219.043 167.187C218.939 167.1 218.856 166.992 218.797 166.871C218.738 166.749 218.705 166.616 218.7 166.481C218.696 166.346 218.719 166.211 218.77 166.086C220.436 160.42 223.671 158.851 225.685 158.444C225.685 155.151 227.002 150.163 233.763 147.422C233.996 147.344 234.251 147.357 234.475 147.46C234.7 147.563 234.876 147.748 234.969 147.976C235.061 148.205 235.063 148.46 234.974 148.69C234.885 148.92 234.712 149.108 234.489 149.214C228.862 151.5 227.709 155.558 227.632 158.309C229.039 158.42 230.403 158.847 231.622 159.558C232.841 160.269 233.884 161.245 234.673 162.415C235.275 163.227 235.621 164.199 235.667 165.208C235.714 166.218 235.459 167.218 234.935 168.081C234.686 168.524 234.325 168.894 233.888 169.155C233.451 169.415 232.954 169.555 232.446 169.563ZM227.748 160.265C228.32 164.139 230.654 167.2 232.155 167.578C232.494 167.674 232.901 167.674 233.307 167.035C233.614 166.478 233.752 165.844 233.705 165.21C233.659 164.575 233.43 163.968 233.046 163.461C232.442 162.585 231.66 161.847 230.75 161.296C229.84 160.745 228.823 160.394 227.768 160.265H227.748Z" fill="#063046"/>
<path d="M334.073 22.2087C333.808 22.2053 333.544 22.1696 333.288 22.1022C330.625 21.4145 328.029 17.3175 327.477 13.0463C325.104 13.6274 323.322 15.7679 322.286 19.274C322.214 19.5206 322.047 19.7285 321.822 19.852C321.596 19.9756 321.331 20.0045 321.085 19.9326C320.838 19.8607 320.63 19.6937 320.507 19.4685C320.383 19.2433 320.354 18.9782 320.426 18.7316C322.092 13.0656 325.327 11.4966 327.351 11.0898C327.351 7.80642 328.659 2.80873 335.419 0.0677467C335.647 0.0189927 335.885 0.0543335 336.09 0.167265C336.294 0.280197 336.451 0.46312 336.531 0.68237C336.611 0.90162 336.609 1.14244 336.526 1.36052C336.443 1.5786 336.283 1.75925 336.078 1.86924C330.45 4.14532 329.298 8.20353 329.22 10.9542C330.628 11.0659 331.993 11.493 333.214 12.2039C334.434 12.9148 335.479 13.8912 336.271 15.0608C336.873 15.8725 337.219 16.8448 337.265 17.854C337.312 18.8631 337.057 19.8632 336.533 20.7268C336.286 21.1658 335.93 21.5332 335.499 21.7929C335.067 22.0527 334.576 22.196 334.073 22.2087ZM329.375 12.9107C329.947 16.7848 332.281 19.8454 333.772 20.2329C334.121 20.32 334.518 20.32 334.935 19.6808C335.241 19.1234 335.379 18.4893 335.333 17.8551C335.286 17.2209 335.057 16.6137 334.673 16.1069C334.068 15.2286 333.282 14.4894 332.368 13.9383C331.455 13.3872 330.435 13.0369 329.375 12.9107Z" fill="#063046"/>
<path d="M91.5255 56.4081C90.6195 56.41 89.7332 56.1437 88.9783 55.6429C88.4246 55.3217 87.9926 54.8267 87.7491 54.2347C87.5057 53.6428 87.4645 52.987 87.632 52.3692C88.339 49.7057 92.4746 47.1391 96.7361 46.558C96.1647 44.185 94.034 42.3835 90.5376 41.3181C90.2928 41.2442 90.0872 41.0764 89.9656 40.8514C89.844 40.6264 89.8164 40.3624 89.8887 40.1171C89.9252 39.9948 89.9856 39.881 90.0663 39.7821C90.1471 39.6832 90.2466 39.6012 90.3591 39.5409C90.4716 39.4806 90.5949 39.4431 90.7219 39.4307C90.849 39.4182 90.9772 39.4309 91.0993 39.4682C96.7555 41.1728 98.2955 44.4175 98.6926 46.4417C101.976 46.4998 106.954 47.8171 109.647 54.5969C109.694 54.7152 109.717 54.8416 109.715 54.9689C109.714 55.0962 109.687 55.222 109.636 55.3389C109.586 55.4559 109.513 55.5617 109.422 55.6505C109.33 55.7392 109.223 55.809 109.104 55.856C108.986 55.9032 108.859 55.9266 108.732 55.9248C108.605 55.9231 108.479 55.8963 108.362 55.8459C108.245 55.7955 108.139 55.7226 108.051 55.6312C107.962 55.5399 107.892 55.432 107.845 55.3136C105.569 49.6864 101.559 48.4951 98.7894 48.4273C98.6679 49.8331 98.2313 51.1935 97.512 52.4075C96.7927 53.6214 95.8091 54.6578 94.6344 55.4395C93.7116 56.0521 92.6329 56.3881 91.5255 56.4081ZM96.8524 48.5144C92.9783 49.0568 89.8984 51.4201 89.5013 52.8632C89.4141 53.2022 89.4044 53.609 90.0436 54.0254C90.5984 54.3367 91.2319 54.4796 91.8666 54.4366C92.5013 54.3936 93.1097 54.1666 93.6175 53.7833C94.5012 53.1865 95.2471 52.4076 95.805 51.4989C96.3629 50.5901 96.72 49.5725 96.8524 48.5144Z" fill="#FDB62C"/>
<path d="M14.3051 62.2387C13.4035 62.241 12.5211 61.9783 11.7676 61.4832C11.2102 61.163 10.7748 60.667 10.5295 60.0729C10.2841 59.4788 10.2427 58.82 10.4117 58.1998C11.1187 55.5363 15.2543 52.9697 19.5158 52.3886C18.9444 50.0156 16.8233 48.2141 13.3172 47.1584C13.0706 47.0839 12.8637 46.9145 12.742 46.6875C12.6204 46.4604 12.5938 46.1943 12.6683 45.9477C12.7428 45.7011 12.9122 45.4942 13.1393 45.3725C13.3663 45.2508 13.6324 45.2243 13.879 45.2988C19.5352 47.0131 21.0751 50.2578 21.4722 52.282C24.7555 52.282 29.7434 53.6477 32.4359 60.4275C32.4831 60.5458 32.5065 60.6722 32.5047 60.7995C32.503 60.9268 32.4762 61.0526 32.4258 61.1695C32.3754 61.2865 32.3025 61.3923 32.2111 61.4811C32.1198 61.5698 32.0119 61.6396 31.8935 61.6866C31.7752 61.7338 31.6488 61.7572 31.5215 61.7555C31.3942 61.7537 31.2684 61.7269 31.1515 61.6765C31.0345 61.6261 30.9287 61.5532 30.84 61.4619C30.7512 61.3705 30.6814 61.2626 30.6344 61.1442C28.3875 55.4976 24.339 54.3644 21.5884 54.2191C21.4705 55.6298 21.0355 56.9957 20.3161 58.2149C19.5967 59.4341 18.6113 60.4752 17.4335 61.2605C16.5038 61.8751 15.4193 62.2142 14.3051 62.2387ZM19.632 54.345C15.7579 54.8874 12.678 57.2507 12.2809 58.6938C12.1937 59.0425 12.1841 59.4396 12.8233 59.8561C13.3783 60.1651 14.0106 60.3076 14.6445 60.2663C15.2783 60.2251 15.8869 60.0019 16.3971 59.6236C17.2811 59.0249 18.027 58.2442 18.5849 57.3339C19.1428 56.4235 19.4998 55.4045 19.632 54.345Z" fill="#FDB62C"/>
<path d="M153.985 278.989L147.167 271.774L141.559 274.176L153.985 278.989Z" fill="#063046"/>
<path d="M214.964 249.09L215.729 259.338L209.501 243.105L214.964 249.09Z" fill="white"/>
<path d="M66.5859 130.327L67.3414 140.565L61.1138 124.342L66.5859 130.327Z" fill="white"/>
<path d="M241.056 37.6472C241.056 37.6472 245.462 37.9475 245.462 32.5333C247.768 37.4439 250.973 36.7368 250.973 36.7368C250.973 36.7368 245.569 39.1485 245.569 41.5795C244.068 37.6472 241.056 37.6472 241.056 37.6472Z" fill="#063046"/>
<path d="M224.504 273.062C225.409 272.72 226.214 272.157 226.847 271.425C227.479 270.692 227.919 269.814 228.126 268.868C229.327 273.188 232.659 272.326 232.659 272.326C232.659 272.326 228.213 274.263 228.213 276.278C226.973 273.062 224.504 273.062 224.504 273.062Z" fill="#FDB62C"/>
<path d="M227.826 237.294C227.826 237.294 232.242 237.594 232.242 232.18C234.547 237.09 237.753 236.393 237.753 236.393C237.753 236.393 232.339 238.795 232.339 241.236C230.838 237.294 227.826 237.294 227.826 237.294Z" fill="#063046"/>
<path d="M0 159.975C0 159.975 4.40678 160.275 4.40678 154.87C6.71186 159.781 9.91768 159.074 9.91768 159.074C9.91768 159.074 4.51332 161.486 4.51332 163.917C3.00242 159.975 0 159.975 0 159.975Z" fill="#063046"/>
<path d="M138.092 57.6575C138.092 57.6575 142.499 57.9577 142.499 52.5436C144.804 57.4541 148.01 56.7567 148.01 56.7567C148.01 56.7567 142.605 59.1587 142.605 61.5995C141.104 57.6575 138.092 57.6575 138.092 57.6575Z" fill="white"/>
<path d="M198.286 41.1631C198.286 41.1631 202.693 41.4633 202.693 36.0588C204.998 40.9694 208.203 40.2623 208.203 40.2623C208.203 40.2623 202.789 42.674 202.789 45.1051C201.288 41.1631 198.286 41.1631 198.286 41.1631Z" fill="white"/>
<path d="M81.4721 164.575C81.4721 164.575 83.2833 162.735 80.8813 160.701C83.9322 161.553 84.8426 159.858 84.8426 159.858C84.8426 159.858 83.8741 163.181 84.9201 164.091C84.363 163.817 83.7364 163.717 83.1217 163.803C82.5069 163.889 81.9323 164.158 81.4721 164.575Z" fill="#063046"/>
<path d="M91.7095 279.387C91.7095 279.387 95.4189 280.675 96.7361 275.793C97.5303 280.752 100.455 280.859 100.455 280.859C100.455 280.859 95.2155 281.779 94.6441 283.948C94.2954 280.074 91.7095 279.387 91.7095 279.387Z" fill="#FDB62C"/>
<path d="M372.717 137.795C372.717 137.795 376.436 135.403 373.191 131.015C377.976 133.572 380.126 131.083 380.126 131.083C380.126 131.083 377.22 136.255 378.673 138.182C375.128 136.003 372.717 137.795 372.717 137.795Z" fill="white"/>
<path d="M423.245 186.929C423.245 186.929 426.964 184.527 423.719 180.149C428.504 182.706 430.654 180.217 430.654 180.217C430.654 180.217 427.748 185.389 429.201 187.317C425.637 185.089 423.245 186.929 423.245 186.929Z" fill="white"/>
<path d="M213.656 267.677C213.281 267.677 212.922 267.826 212.656 268.091C212.391 268.356 212.242 268.716 212.242 269.091C212.242 269.466 212.391 269.826 212.656 270.091C212.922 270.356 213.281 270.505 213.656 270.505C214.031 270.505 214.391 270.356 214.656 270.091C214.921 269.826 215.07 269.466 215.07 269.091C215.07 268.716 214.921 268.356 214.656 268.091C214.391 267.826 214.031 267.677 213.656 267.677Z" fill="#2B9EBA"/>
<path d="M359.797 153.524C359.443 153.553 359.113 153.715 358.873 153.976C358.633 154.237 358.5 154.578 358.5 154.933C358.5 155.288 358.633 155.63 358.873 155.891C359.113 156.152 359.443 156.313 359.797 156.343C360.15 156.313 360.48 156.152 360.72 155.891C360.96 155.63 361.094 155.288 361.094 154.933C361.094 154.578 360.96 154.237 360.72 153.976C360.48 153.715 360.15 153.553 359.797 153.524Z" fill="#063046"/>
<path d="M403.642 247.318C403.288 247.347 402.958 247.509 402.718 247.77C402.478 248.031 402.344 248.372 402.344 248.727C402.344 249.082 402.478 249.424 402.718 249.685C402.958 249.946 403.288 250.107 403.642 250.136C403.995 250.107 404.325 249.946 404.565 249.685C404.805 249.424 404.939 249.082 404.939 248.727C404.939 248.372 404.805 248.031 404.565 247.77C404.325 247.509 403.995 247.347 403.642 247.318Z" fill="#063046"/>
<path d="M283.38 55.0618C283.027 55.0911 282.697 55.2523 282.457 55.5133C282.216 55.7744 282.083 56.1162 282.083 56.471C282.083 56.8258 282.216 57.1676 282.457 57.4287C282.697 57.6897 283.027 57.8509 283.38 57.8802C283.734 57.8509 284.063 57.6897 284.304 57.4287C284.544 57.1676 284.677 56.8258 284.677 56.471C284.677 56.1162 284.544 55.7744 284.304 55.5133C284.063 55.2523 283.734 55.0911 283.38 55.0618Z" fill="#063046"/>
<path d="M118.712 149.824C118.358 149.854 118.029 150.015 117.788 150.276C117.548 150.537 117.415 150.879 117.415 151.233C117.415 151.588 117.548 151.93 117.788 152.191C118.029 152.452 118.358 152.613 118.712 152.643C119.065 152.613 119.395 152.452 119.635 152.191C119.876 151.93 120.009 151.588 120.009 151.233C120.009 150.879 119.876 150.537 119.635 150.276C119.395 150.015 119.065 149.854 118.712 149.824Z" fill="white"/>
<path d="M304.484 26.6156C304.131 26.6449 303.801 26.8061 303.561 27.0672C303.32 27.3282 303.187 27.67 303.187 28.0248C303.187 28.3796 303.32 28.7215 303.561 28.9825C303.801 29.2435 304.131 29.4047 304.484 29.4341C304.838 29.4047 305.167 29.2435 305.408 28.9825C305.648 28.7215 305.781 28.3796 305.781 28.0248C305.781 27.67 305.648 27.3282 305.408 27.0672C305.167 26.8061 304.838 26.6449 304.484 26.6156Z" fill="#FDB62C"/>
<path d="M275.061 35.0322C274.707 35.0616 274.377 35.2227 274.137 35.4838C273.897 35.7448 273.763 36.0867 273.763 36.4415C273.763 36.7963 273.897 37.1381 274.137 37.3991C274.377 37.6602 274.707 37.8214 275.061 37.8507C275.414 37.8214 275.744 37.6602 275.984 37.3991C276.224 37.1381 276.358 36.7963 276.358 36.4415C276.358 36.0867 276.224 35.7448 275.984 35.4838C275.744 35.2227 275.414 35.0616 275.061 35.0322Z" fill="#FDB62C"/>
<path d="M116.358 41.1729C116.005 41.2022 115.675 41.3634 115.435 41.6244C115.195 41.8855 115.061 42.2273 115.061 42.5821C115.061 42.9369 115.195 43.2787 115.435 43.5398C115.675 43.8008 116.005 43.962 116.358 43.9913C116.712 43.962 117.042 43.8008 117.282 43.5398C117.522 43.2787 117.656 42.9369 117.656 42.5821C117.656 42.2273 117.522 41.8855 117.282 41.6244C117.042 41.3634 116.712 41.2022 116.358 41.1729Z" fill="#2B9EBA"/>
<path d="M47.7676 112.351C47.3925 112.351 47.0329 112.5 46.7677 112.765C46.5025 113.031 46.3535 113.39 46.3535 113.765C46.3535 114.14 46.5025 114.5 46.7677 114.765C47.0329 115.03 47.3925 115.179 47.7676 115.179C48.1426 115.179 48.5023 115.03 48.7674 114.765C49.0326 114.5 49.1816 114.14 49.1816 113.765C49.1816 113.39 49.0326 113.031 48.7674 112.765C48.5023 112.5 48.1426 112.351 47.7676 112.351Z" fill="#2B9EBA"/>
<path d="M178.663 8.42627C178.31 8.45561 177.98 8.61679 177.74 8.87783C177.5 9.13888 177.366 9.48071 177.366 9.8355C177.366 10.1903 177.5 10.5321 177.74 10.7932C177.98 11.0542 178.31 11.2154 178.663 11.2447C179.017 11.2154 179.347 11.0542 179.587 10.7932C179.827 10.5321 179.961 10.1903 179.961 9.8355C179.961 9.48071 179.827 9.13888 179.587 8.87783C179.347 8.61679 179.017 8.45561 178.663 8.42627Z" fill="#063046"/>
<path d="M211.893 4.36804C211.54 4.39738 211.21 4.55856 210.97 4.8196C210.73 5.08065 210.596 5.42248 210.596 5.77728C210.596 6.13207 210.73 6.4739 210.97 6.73495C211.21 6.99599 211.54 7.15717 211.893 7.18651C212.247 7.15717 212.577 6.99599 212.817 6.73495C213.057 6.4739 213.191 6.13207 213.191 5.77728C213.191 5.42248 213.057 5.08065 212.817 4.8196C212.577 4.55856 212.247 4.39738 211.893 4.36804Z" fill="white"/>
<path d="M235.351 14.5862C234.974 14.5862 234.611 14.7362 234.344 15.0032C234.077 15.2702 233.927 15.6323 233.927 16.0099C233.927 16.3875 234.077 16.7497 234.344 17.0167C234.611 17.2837 234.974 17.4337 235.351 17.4337C235.729 17.4337 236.091 17.2837 236.358 17.0167C236.625 16.7497 236.775 16.3875 236.775 16.0099C236.775 15.6323 236.625 15.2702 236.358 15.0032C236.091 14.7362 235.729 14.5862 235.351 14.5862Z" fill="#2B9EBA"/>
<path d="M204.087 184.188C203.734 184.218 203.404 184.379 203.164 184.64C202.923 184.901 202.79 185.243 202.79 185.597C202.79 185.952 202.923 186.294 203.164 186.555C203.404 186.816 203.734 186.977 204.087 187.007C204.441 186.977 204.77 186.816 205.011 186.555C205.251 186.294 205.384 185.952 205.384 185.597C205.384 185.243 205.251 184.901 205.011 184.64C204.77 184.379 204.441 184.218 204.087 184.188Z" fill="#063046"/>
<path d="M262.586 44.4465C262.232 44.4759 261.903 44.6371 261.662 44.8981C261.422 45.1591 261.289 45.501 261.289 45.8558C261.289 46.2106 261.422 46.5524 261.662 46.8134C261.903 47.0745 262.232 47.2357 262.586 47.265C262.939 47.2357 263.269 47.0745 263.509 46.8134C263.75 46.5524 263.883 46.2106 263.883 45.8558C263.883 45.501 263.75 45.1591 263.509 44.8981C263.269 44.6371 262.939 44.4759 262.586 44.4465Z" fill="#063046"/>
<path d="M442.906 200.682C442.552 200.712 442.222 200.873 441.982 201.134C441.742 201.395 441.608 201.737 441.608 202.092C441.608 202.447 441.742 202.788 441.982 203.049C442.222 203.31 442.552 203.472 442.906 203.501C443.259 203.472 443.589 203.31 443.829 203.049C444.069 202.788 444.203 202.447 444.203 202.092C444.203 201.737 444.069 201.395 443.829 201.134C443.589 200.873 443.259 200.712 442.906 200.682Z" fill="#063046"/>
<path d="M23.2445 194.135C22.8909 194.164 22.5613 194.326 22.321 194.587C22.0808 194.848 21.9474 195.19 21.9474 195.544C21.9474 195.899 22.0808 196.241 22.321 196.502C22.5613 196.763 22.8909 196.924 23.2445 196.954C23.5981 196.924 23.9277 196.763 24.168 196.502C24.4083 196.241 24.5416 195.899 24.5416 195.544C24.5416 195.19 24.4083 194.848 24.168 194.587C23.9277 194.326 23.5981 194.164 23.2445 194.135Z" fill="white"/>
<path d="M183.341 169.36C182.966 169.36 182.607 169.509 182.342 169.774C182.076 170.039 181.927 170.399 181.927 170.774C181.927 171.149 182.076 171.509 182.342 171.774C182.607 172.039 182.966 172.188 183.341 172.188C183.716 172.188 184.076 172.039 184.341 171.774C184.606 171.509 184.755 171.149 184.755 170.774C184.755 170.399 184.606 170.039 184.341 169.774C184.076 169.509 183.716 169.36 183.341 169.36Z" fill="#FDB62C"/>
<path d="M275.322 138.192C274.968 138.221 274.639 138.383 274.399 138.644C274.158 138.905 274.025 139.246 274.025 139.601C274.025 139.956 274.158 140.298 274.399 140.559C274.639 140.82 274.968 140.981 275.322 141.01C275.676 140.981 276.005 140.82 276.245 140.559C276.486 140.298 276.619 139.956 276.619 139.601C276.619 139.246 276.486 138.905 276.245 138.644C276.005 138.383 275.676 138.221 275.322 138.192Z" fill="#063046"/>
<path d="M437.676 112.729C437.3 112.729 436.941 112.878 436.676 113.143C436.41 113.408 436.261 113.768 436.261 114.143C436.261 114.518 436.41 114.878 436.676 115.143C436.941 115.408 437.3 115.557 437.676 115.557C438.051 115.557 438.41 115.408 438.675 115.143C438.941 114.878 439.09 114.518 439.09 114.143C439.09 113.768 438.941 113.408 438.675 113.143C438.41 112.878 438.051 112.729 437.676 112.729Z" fill="#063046"/>
<path d="M104.881 165.243C104.506 165.243 104.147 165.392 103.881 165.658C103.616 165.923 103.467 166.282 103.467 166.657C103.467 167.033 103.616 167.392 103.881 167.657C104.147 167.923 104.506 168.072 104.881 168.072C105.256 168.072 105.616 167.923 105.881 167.657C106.146 167.392 106.295 167.033 106.295 166.657C106.295 166.282 106.146 165.923 105.881 165.658C105.616 165.392 105.256 165.243 104.881 165.243Z" fill="#063046"/>
<path d="M448.63 169.592C448.276 169.622 447.946 169.783 447.706 170.044C447.466 170.305 447.332 170.647 447.332 171.002C447.332 171.356 447.466 171.698 447.706 171.959C447.946 172.22 448.276 172.381 448.63 172.411C448.983 172.381 449.313 172.22 449.553 171.959C449.793 171.698 449.927 171.356 449.927 171.002C449.927 170.647 449.793 170.305 449.553 170.044C449.313 169.783 448.983 169.622 448.63 169.592Z" fill="#FDB62C"/>
<path d="M11.7676 226.862C11.414 226.892 11.0844 227.053 10.8441 227.314C10.6038 227.575 10.4705 227.917 10.4705 228.272C10.4705 228.626 10.6038 228.968 10.8441 229.229C11.0844 229.49 11.414 229.651 11.7676 229.681C12.1211 229.651 12.4508 229.49 12.691 229.229C12.9313 228.968 13.0647 228.626 13.0647 228.272C13.0647 227.917 12.9313 227.575 12.691 227.314C12.4508 227.053 12.1211 226.892 11.7676 226.862Z" fill="white"/>
<path d="M230.334 255.841L232.736 247.822L234.741 249.023L230.334 255.841Z" fill="#FDB62C"/>
<path d="M35.6416 150.066C35.4102 150.066 35.1797 150.04 34.9539 149.989C34.2857 149.844 32.7263 149.195 32.8426 146.492C32.9975 143.073 37.2687 139.083 41.1525 138.744C41.3653 138.729 41.5789 138.729 41.7917 138.744C41.3568 138.07 40.7738 137.503 40.0871 137.088C38.5421 136.057 36.7243 135.51 34.8668 135.519C34.6313 136.315 34.3064 137.082 33.8982 137.805C32.4842 140.381 29.8982 142.87 27.2832 142.589C26.7611 142.602 26.2488 142.445 25.8241 142.141C25.3994 141.837 25.0854 141.403 24.9297 140.904C24.5423 139.48 25.6755 137.543 27.8353 135.974C29.4299 134.811 31.2736 134.035 33.2203 133.708C33.2978 133.022 33.1184 132.332 32.7166 131.771C31.69 130.473 28.9878 130.337 25.1041 131.412C24.8562 131.48 24.5914 131.447 24.368 131.32C24.1446 131.193 23.9808 130.982 23.9128 130.734C23.8447 130.486 23.8779 130.222 24.005 129.998C24.1322 129.775 24.3429 129.611 24.5907 129.543C29.4334 128.216 32.6489 128.574 34.276 130.57C34.9361 131.417 35.2787 132.469 35.2445 133.543C37.3715 133.581 39.4439 134.222 41.2203 135.393C42.6552 136.258 43.6972 137.647 44.1259 139.267C45.5496 139.964 47.0314 141.504 47.7772 144.73C47.8363 144.98 47.7934 145.244 47.6581 145.463C47.5228 145.682 47.3061 145.838 47.0556 145.897C46.8052 145.956 46.5415 145.913 46.3227 145.778C46.1038 145.642 45.9476 145.426 45.8886 145.175C45.6602 143.876 45.0808 142.663 44.213 141.669C44.1173 142.293 43.9416 142.902 43.69 143.48C42.1791 146.996 38.3438 150.066 35.6416 150.066ZM41.7336 140.633H41.3268C38.1985 140.923 34.8765 144.323 34.7796 146.56C34.7796 147.471 34.9443 147.984 35.3801 148.081C36.8426 148.42 40.5229 145.921 41.8692 142.696C42.1544 142.055 42.3091 141.363 42.3244 140.662C42.1285 140.637 41.931 140.628 41.7336 140.633ZM32.736 135.79C31.3822 136.122 30.1059 136.714 28.9782 137.533C27.2445 138.802 26.7118 140.023 26.8183 140.439C26.8183 140.555 27.1283 140.662 27.506 140.701C28.9394 140.856 30.9539 139.219 32.2227 136.904C32.4189 136.545 32.5904 136.172 32.736 135.79Z" fill="#063046"/>
<path d="M72.3099 10.8767L79.0992 9.1527L73.1719 12.5717L74.5762 19.274L71.1573 13.4627L64.552 14.7896L70.6053 11.4288L69.075 4.66833L72.3099 10.8767Z" fill="#FDB62C"/>
<path d="M244.387 281.266L250.053 283.58L244.116 282.902L241.617 288.336L242.228 282.486L236.901 279.977L242.906 280.762L245.346 275.222L244.387 281.266Z" fill="white"/>
<path d="M48.1937 183.113L52.862 180.43L49.1816 184.198L51.6029 188.866L47.8741 185.273L43.2543 187.617L47.0509 183.878L44.5134 179.191L48.1937 183.113Z" fill="white"/>
<path d="M147.274 169.36L151.942 166.677L148.261 170.435L150.683 175.103L146.954 171.52L142.334 173.863L146.121 170.115L143.593 165.437L147.274 169.36Z" fill="white"/>
<path d="M219.564 57.4444L223.429 55.2264L220.387 58.3354L222.383 62.1902L219.303 59.2265L215.487 61.1636L218.625 58.0642L216.523 54.1901L219.564 57.4444Z" fill="white"/>
<path d="M293.162 41.0276L297.017 38.8096L293.976 41.9186L295.981 45.7735L292.901 42.8097L289.085 44.7468L292.213 41.6571L290.121 37.783L293.162 41.0276Z" fill="white"/>
<path d="M457.617 57.8899L461.482 55.6623L458.441 58.7713L460.436 62.6358L457.356 59.6624L453.54 61.5995L456.678 58.5098L454.576 54.6356L457.617 57.8899Z" fill="white"/>
<path d="M329.036 144.526L333.734 147.161L328.62 145.931L325.86 150.405L327.022 145.359L322.644 142.599L327.806 143.935L330.528 139.354L329.036 144.526Z" fill="white"/>
<path d="M291.981 11.5934L296.678 14.2279L291.564 12.9881L288.794 17.4628L289.966 12.4167L285.588 9.65633L290.741 10.9929L293.462 6.42139L291.981 11.5934Z" fill="white"/>
<path d="M222.421 284.655C222.212 284.708 222.026 284.829 221.893 284.999C221.76 285.169 221.688 285.379 221.688 285.595C221.688 285.811 221.76 286.02 221.893 286.191C222.026 286.361 222.212 286.482 222.421 286.534C222.631 286.482 222.817 286.361 222.949 286.191C223.082 286.02 223.154 285.811 223.154 285.595C223.154 285.379 223.082 285.169 222.949 284.999C222.817 284.829 222.631 284.708 222.421 284.655Z" fill="white"/>
<path d="M235.651 301.092C235.442 301.144 235.256 301.265 235.123 301.435C234.99 301.605 234.918 301.815 234.918 302.031C234.918 302.247 234.99 302.457 235.123 302.627C235.256 302.797 235.442 302.918 235.651 302.971C235.861 302.918 236.047 302.797 236.179 302.627C236.312 302.457 236.384 302.247 236.384 302.031C236.384 301.815 236.312 301.605 236.179 301.435C236.047 301.265 235.861 301.144 235.651 301.092Z" fill="#33B6C4"/>
<path d="M260.533 287.464C260.323 287.517 260.137 287.638 260.005 287.808C259.872 287.978 259.8 288.188 259.8 288.404C259.8 288.62 259.872 288.829 260.005 288.999C260.137 289.17 260.323 289.291 260.533 289.343C260.742 289.291 260.928 289.17 261.061 288.999C261.194 288.829 261.266 288.62 261.266 288.404C261.266 288.188 261.194 287.978 261.061 287.808C260.928 287.638 260.742 287.517 260.533 287.464Z" fill="white"/>
<path d="M198.373 296.685C198.163 296.737 197.978 296.858 197.845 297.028C197.712 297.199 197.64 297.408 197.64 297.624C197.64 297.84 197.712 298.05 197.845 298.22C197.978 298.39 198.163 298.511 198.373 298.564C198.582 298.511 198.768 298.39 198.901 298.22C199.034 298.05 199.106 297.84 199.106 297.624C199.106 297.408 199.034 297.199 198.901 297.028C198.768 296.858 198.582 296.737 198.373 296.685Z" fill="#FDB62C"/>
<path d="M253.685 313.111C253.428 313.111 253.182 313.213 253 313.395C252.819 313.577 252.717 313.823 252.717 314.08C252.717 314.337 252.819 314.583 253 314.765C253.182 314.946 253.428 315.048 253.685 315.048C253.942 315.048 254.188 314.946 254.37 314.765C254.552 314.583 254.654 314.337 254.654 314.08C254.654 313.823 254.552 313.577 254.37 313.395C254.188 313.213 253.942 313.111 253.685 313.111Z" fill="white"/>
<path d="M167.913 298.69C167.703 298.742 167.518 298.863 167.385 299.033C167.252 299.204 167.18 299.413 167.18 299.629C167.18 299.845 167.252 300.055 167.385 300.225C167.518 300.395 167.703 300.516 167.913 300.569C168.122 300.516 168.308 300.395 168.441 300.225C168.574 300.055 168.646 299.845 168.646 299.629C168.646 299.413 168.574 299.204 168.441 299.033C168.308 298.863 168.122 298.742 167.913 298.69Z" fill="#33B6C4"/>
<path d="M214.402 304.84L218.015 308.85L218.412 301.634L214.402 304.84Z" fill="#33B6C4"/>
<path d="M180.339 294.418L188.755 303.232L183.545 290.806L180.339 294.418Z" fill="#33B6C4"/>
<path d="M206.789 286.002L210.402 283.6L209.995 290.011L206.789 286.002Z" fill="white"/>
<path d="M250.073 298.825L254.886 300.026L250.479 303.232L250.073 298.825Z" fill="white"/>
<path d="M154.935 149.96L161.249 149.66L157.646 154.173L154.935 149.96Z" fill="#FDB62C"/>
<path d="M99.3027 5.97586L97.8015 18.596L106.218 0.861938L99.3027 5.97586Z" fill="#063046"/>
<path d="M443.719 31.3324L442.218 43.9623L450.634 26.2185L443.719 31.3324Z" fill="#063046"/>
<path d="M257.201 145.873L262.305 150.376L260.804 140.759L257.201 145.873Z" fill="#FDB62C"/>
<path d="M187.661 57.5122L193.753 54.4516L184.261 52.2627L187.661 57.5122Z" fill="#FDB62C"/>
</g>
<defs>
<clipPath id="clip0_2_24">
<rect width="472" height="315" fill="white"/>
</clipPath>
</defs>
</svg>
